<mxfile host="65bd71144e">
    <diagram id="r42jsTGxHJVRxmjJ8FQ8" name="Page-1">
        <mxGraphModel dx="1609" dy="470" grid="1" gridSize="10" guides="1" tooltips="1" connect="1" arrows="1" fold="1" page="1" pageScale="1" pageWidth="850" pageHeight="1100" background="none" math="0" shadow="0">
            <root>
                <mxCell id="0"/>
                <mxCell id="1" parent="0"/>
                <mxCell id="48" style="edgeStyle=none;html=1;exitX=0.5;exitY=0;exitDx=0;exitDy=0;" parent="1" source="44" target="43" edge="1">
                    <mxGeometry relative="1" as="geometry"/>
                </mxCell>
                <mxCell id="30" value="" style="rounded=1;whiteSpace=wrap;html=1;movable=1;resizable=1;rotatable=1;deletable=1;editable=1;locked=0;connectable=1;container=1;fillColor=#fff2cc;strokeColor=#d6b656;" parent="1" vertex="1">
                    <mxGeometry x="-360" y="290" width="360" height="320" as="geometry"/>
                </mxCell>
                <mxCell id="31" value="&lt;li style=&quot;color: rgb(63, 63, 63); scrollbar-color: rgb(226, 226, 226) rgb(251, 251, 251); font-weight: 700; text-wrap-mode: nowrap;&quot; class=&quot;whitespace-normal break-words&quot;&gt;&lt;span style=&quot;color: rgb(63, 63, 63); scrollbar-color: rgb(226, 226, 226) rgb(251, 251, 251);&quot;&gt;Synchronous code executes first&lt;/span&gt;&lt;/li&gt;" style="rounded=1;whiteSpace=wrap;html=1;align=left;" parent="30" vertex="1">
                    <mxGeometry x="25" y="70" width="225" height="30" as="geometry"/>
                </mxCell>
                <mxCell id="42" value="&lt;b&gt;&lt;font style=&quot;font-size: 24px;&quot;&gt;Code base&lt;/font&gt;&lt;/b&gt;" style="rounded=1;whiteSpace=wrap;html=1;align=left;" parent="30" vertex="1">
                    <mxGeometry x="67.5" y="20" width="225" height="30" as="geometry"/>
                </mxCell>
                <mxCell id="32" value="&lt;li style=&quot;color: rgb(63, 63, 63); scrollbar-color: rgb(226, 226, 226) rgb(251, 251, 251); font-weight: 700; text-wrap-mode: nowrap;&quot; class=&quot;whitespace-normal break-words&quot;&gt;&lt;span style=&quot;color: rgb(63, 63, 63);&quot;&gt;Macrotasks (setTimeout, setInterval) execute last&lt;/span&gt;&lt;/li&gt;" style="rounded=1;whiteSpace=wrap;html=1;align=left;" parent="30" vertex="1">
                    <mxGeometry x="20" y="180" width="305" height="40" as="geometry"/>
                </mxCell>
                <mxCell id="33" value="&lt;li style=&quot;color: rgb(63, 63, 63); scrollbar-color: rgb(226, 226, 226) rgb(251, 251, 251); font-weight: 700; text-wrap-mode: nowrap;&quot; class=&quot;whitespace-normal break-words&quot;&gt;Microtasks (promises) execute next&lt;/li&gt;" style="rounded=1;whiteSpace=wrap;html=1;align=left;" parent="30" vertex="1">
                    <mxGeometry x="25" y="120" width="240" height="50" as="geometry"/>
                </mxCell>
                <mxCell id="11" value="" style="edgeStyle=elbowEdgeStyle;html=1;entryX=1;entryY=0.25;entryDx=0;entryDy=0;flowAnimation=1;exitX=0.625;exitY=1.047;exitDx=0;exitDy=0;exitPerimeter=0;" parent="1" source="12" target="8" edge="1">
                    <mxGeometry relative="1" as="geometry">
                        <Array as="points">
                            <mxPoint x="710" y="560"/>
                        </Array>
                    </mxGeometry>
                </mxCell>
                <mxCell id="50" value="timer done ,&lt;div&gt;request complete ,&lt;div&gt;&amp;nbsp;event fired)&lt;/div&gt;&lt;/div&gt;" style="edgeLabel;html=1;align=center;verticalAlign=middle;resizable=0;points=[];" parent="11" vertex="1" connectable="0">
                    <mxGeometry x="-0.4604" y="-1" relative="1" as="geometry">
                        <mxPoint as="offset"/>
                    </mxGeometry>
                </mxCell>
                <mxCell id="53" value="settimeout, fetch,&lt;div&gt;click etc&lt;/div&gt;" style="edgeLabel;html=1;align=center;verticalAlign=middle;resizable=0;points=[];" parent="11" vertex="1" connectable="0">
                    <mxGeometry x="0.5145" relative="1" as="geometry">
                        <mxPoint as="offset"/>
                    </mxGeometry>
                </mxCell>
                <mxCell id="5" value="web apis(while async task come here)" style="swimlane;childLayout=stackLayout;horizontal=1;startSize=60;horizontalStack=0;rounded=1;fontSize=14;fontStyle=0;strokeWidth=2;resizeParent=0;resizeLast=1;shadow=0;dashed=0;align=center;arcSize=4;whiteSpace=wrap;html=1;fillColor=#d5e8d4;strokeColor=#82b366;" parent="1" vertex="1">
                    <mxGeometry x="560" y="270" width="160" height="120" as="geometry"/>
                </mxCell>
                <mxCell id="12" value="task wait" style="text;html=1;align=center;verticalAlign=middle;resizable=0;points=[];autosize=1;" parent="5" vertex="1">
                    <mxGeometry y="60" width="160" height="60" as="geometry"/>
                </mxCell>
                <mxCell id="15" value="" style="html=1;entryX=0.454;entryY=1.12;entryDx=0;entryDy=0;exitX=0.25;exitY=0;exitDx=0;exitDy=0;flowAnimation=1;entryPerimeter=0;edgeStyle=elbowEdgeStyle;elbow=vertical;" parent="1" source="43" target="38" edge="1">
                    <mxGeometry relative="1" as="geometry">
                        <mxPoint x="271" y="470" as="sourcePoint"/>
                        <mxPoint x="300" y="410" as="targetPoint"/>
                    </mxGeometry>
                </mxCell>
                <mxCell id="16" value="when the call stack is empty.&lt;div&gt;after all the sync code has been&lt;/div&gt;&lt;div&gt;executed&lt;/div&gt;" style="edgeLabel;html=1;align=center;verticalAlign=middle;resizable=0;points=[];" parent="15" vertex="1" connectable="0">
                    <mxGeometry x="0.07" y="3" relative="1" as="geometry">
                        <mxPoint as="offset"/>
                    </mxGeometry>
                </mxCell>
                <mxCell id="7" value="callback queue(Macrotask Queue)" style="swimlane;childLayout=stackLayout;horizontal=1;startSize=50;horizontalStack=0;rounded=1;fontSize=14;fontStyle=0;strokeWidth=2;resizeParent=0;resizeLast=1;shadow=0;dashed=0;align=center;arcSize=4;whiteSpace=wrap;html=1;fillColor=#f8cecc;strokeColor=#b85450;" parent="1" vertex="1">
                    <mxGeometry x="270" y="620" width="180" height="120" as="geometry"/>
                </mxCell>
                <mxCell id="8" value="async task 1&lt;div&gt;async task 2&lt;/div&gt;" style="align=left;strokeColor=none;fillColor=none;spacingLeft=4;fontSize=12;verticalAlign=top;resizable=0;rotatable=0;part=1;html=1;" parent="7" vertex="1">
                    <mxGeometry y="50" width="180" height="70" as="geometry"/>
                </mxCell>
                <mxCell id="10" value="" style="whiteSpace=wrap;html=1;fontSize=14;fontStyle=0;startSize=50;rounded=1;strokeWidth=2;shadow=0;dashed=0;arcSize=4;" parent="7" vertex="1">
                    <mxGeometry y="120" width="180" as="geometry"/>
                </mxCell>
                <mxCell id="17" value="" style="edgeStyle=elbowEdgeStyle;html=1;flowAnimation=1;exitX=1;exitY=0.5;exitDx=0;exitDy=0;entryX=-0.012;entryY=0.39;entryDx=0;entryDy=0;entryPerimeter=0;" parent="1" source="37" target="5" edge="1">
                    <mxGeometry relative="1" as="geometry">
                        <mxPoint x="380" y="363.04878048780495" as="sourcePoint"/>
                    </mxGeometry>
                </mxCell>
                <mxCell id="41" value="async task goes&lt;div&gt;to web apis stack&lt;/div&gt;" style="edgeLabel;html=1;align=center;verticalAlign=middle;resizable=0;points=[];" parent="17" vertex="1" connectable="0">
                    <mxGeometry x="-0.2597" y="4" relative="1" as="geometry">
                        <mxPoint as="offset"/>
                    </mxGeometry>
                </mxCell>
                <mxCell id="20" style="edgeStyle=orthogonalEdgeStyle;html=1;entryX=0.003;entryY=0.166;entryDx=0;entryDy=0;exitX=1;exitY=0.25;exitDx=0;exitDy=0;entryPerimeter=0;" parent="1" source="30" target="35" edge="1">
                    <mxGeometry relative="1" as="geometry">
                        <mxPoint x="90" y="640" as="sourcePoint"/>
                        <mxPoint x="220" y="340" as="targetPoint"/>
                    </mxGeometry>
                </mxCell>
                <mxCell id="35" value="call stack" style="swimlane;fontStyle=0;childLayout=stackLayout;horizontal=1;startSize=26;horizontalStack=0;resizeParent=1;resizeParentMax=0;resizeLast=0;collapsible=1;marginBottom=0;align=center;fontSize=14;fillColor=#dae8fc;strokeColor=#6c8ebf;" parent="1" vertex="1">
                    <mxGeometry x="180" y="290" width="230" height="110" as="geometry">
                        <mxRectangle y="600" width="60" height="30" as="alternateBounds"/>
                    </mxGeometry>
                </mxCell>
                <mxCell id="36" value="&lt;span style=&quot;color: rgb(0, 0, 0); font-size: 14px; text-align: center;&quot;&gt;&lt;b&gt;sync task&lt;/b&gt;&amp;nbsp;&lt;/span&gt;&lt;span style=&quot;font-size: 14px; text-align: center; background-color: transparent;&quot;&gt;executes here only&lt;/span&gt;" style="text;strokeColor=default;fillColor=none;spacingLeft=4;spacingRight=4;overflow=hidden;rotatable=0;points=[[0,0.5],[1,0.5]];portConstraint=eastwest;fontSize=12;whiteSpace=wrap;html=1;" parent="35" vertex="1">
                    <mxGeometry y="26" width="230" height="24" as="geometry"/>
                </mxCell>
                <mxCell id="37" value="Microtask" style="text;strokeColor=default;fillColor=none;spacingLeft=4;spacingRight=4;overflow=hidden;rotatable=0;points=[[0,0.5],[1,0.5]];portConstraint=eastwest;fontSize=12;whiteSpace=wrap;html=1;fontStyle=1" parent="35" vertex="1">
                    <mxGeometry y="50" width="230" height="30" as="geometry"/>
                </mxCell>
                <mxCell id="38" value="Macrotask" style="text;strokeColor=default;fillColor=none;spacingLeft=4;spacingRight=4;overflow=hidden;rotatable=0;points=[[0,0.5],[1,0.5]];portConstraint=eastwest;fontSize=12;whiteSpace=wrap;html=1;fontStyle=1" parent="35" vertex="1">
                    <mxGeometry y="80" width="230" height="30" as="geometry"/>
                </mxCell>
                <mxCell id="46" value="" style="html=1;exitX=0.045;exitY=0.003;exitDx=0;exitDy=0;flowAnimation=1;edgeStyle=elbowEdgeStyle;elbow=vertical;exitPerimeter=0;" parent="1" source="7" edge="1">
                    <mxGeometry relative="1" as="geometry">
                        <mxPoint x="306" y="500" as="sourcePoint"/>
                        <mxPoint x="238" y="404" as="targetPoint"/>
                        <Array as="points">
                            <mxPoint x="80" y="460"/>
                        </Array>
                    </mxGeometry>
                </mxCell>
                <mxCell id="54" value="after the&amp;nbsp;&lt;div&gt;microtask queue is&amp;nbsp;&lt;/div&gt;&lt;div&gt;empty&lt;/div&gt;" style="edgeLabel;html=1;align=center;verticalAlign=middle;resizable=0;points=[];" parent="46" vertex="1" connectable="0">
                    <mxGeometry x="-0.4185" y="2" relative="1" as="geometry">
                        <mxPoint as="offset"/>
                    </mxGeometry>
                </mxCell>
                <mxCell id="43" value="Microtask Queue" style="swimlane;childLayout=stackLayout;horizontal=1;startSize=50;horizontalStack=0;rounded=1;fontSize=14;fontStyle=0;strokeWidth=2;resizeParent=0;resizeLast=1;shadow=0;dashed=0;align=center;arcSize=4;whiteSpace=wrap;html=1;fillColor=#e1d5e7;strokeColor=#9673a6;" parent="1" vertex="1">
                    <mxGeometry x="425" y="470" width="140" height="120" as="geometry"/>
                </mxCell>
                <mxCell id="44" value="async task 1&lt;div&gt;async task 2&lt;/div&gt;" style="align=left;strokeColor=none;fillColor=none;spacingLeft=4;fontSize=12;verticalAlign=top;resizable=0;rotatable=0;part=1;html=1;" parent="43" vertex="1">
                    <mxGeometry y="50" width="140" height="70" as="geometry"/>
                </mxCell>
                <mxCell id="45" value="" style="whiteSpace=wrap;html=1;fontSize=14;fontStyle=0;startSize=50;rounded=1;strokeWidth=2;shadow=0;dashed=0;arcSize=4;" parent="43" vertex="1">
                    <mxGeometry y="120" width="140" as="geometry"/>
                </mxCell>
                <mxCell id="51" value="" style="endArrow=classic;html=1;entryX=1;entryY=0.25;entryDx=0;entryDy=0;flowAnimation=1;" parent="1" target="44" edge="1">
                    <mxGeometry width="50" height="50" relative="1" as="geometry">
                        <mxPoint x="710" y="540" as="sourcePoint"/>
                        <mxPoint x="240" y="510" as="targetPoint"/>
                    </mxGeometry>
                </mxCell>
            </root>
        </mxGraphModel>
    </diagram>
</mxfile>